<?xml version="1.0" encoding="utf-8"?>
<!-- Generator: Adobe Illustrator 17.1.0, SVG Export Plug-In . SVG Version: 6.00 Build 0)  -->
<!DOCTYPE svg PUBLIC "-//W3C//DTD SVG 1.1//EN" "http://www.w3.org/Graphics/SVG/1.1/DTD/svg11.dtd">
<svg version="1.1" id="Calque_1" xmlns="http://www.w3.org/2000/svg" xmlns:xlink="http://www.w3.org/1999/xlink" x="0px" y="0px"
	 viewBox="682.1 100.6 389.6 560" enable-background="new 682.1 100.6 389.6 560" xml:space="preserve">
<title>Moon</title>
<g>
	<path fill="#FFFFFF" d="M1060.4,609.2c-126.2-50.7-187.6-194.1-136.8-320.6c25.1-62.3,74.5-111.7,136.8-136.8
		c9.1-3.6,13.4-13.8,9.7-22.7c-1.8-4.5-5.4-8.2-9.7-9.7c-31.3-12.5-64.6-18.8-98.3-18.8c-154.7,0-280,125.3-280,280
		s125.3,280,280,280c33.8,0,67.1-6.3,98.5-18.8c9.1-3.6,13.4-13.8,9.7-22.7C1068.6,614.4,1064.9,610.8,1060.4,609.2L1060.4,609.2z
		 M962.1,625.3c-135.2,0-244.9-109.6-244.9-244.9s109.6-244.9,244.9-244.9c14.7,0,29.7,1.4,44.2,4.3C873.3,220.7,831.1,394,912,527
		c23.3,38.5,55.7,70.9,94.2,94.2C991.5,623.9,976.8,625.3,962.1,625.3z"/>
</g>
</svg>
