<?xml version="1.0" encoding="utf-8"?>
<!-- Generator: Adobe Illustrator 17.1.0, SVG Export Plug-In . SVG Version: 6.00 Build 0)  -->
<!DOCTYPE svg PUBLIC "-//W3C//DTD SVG 1.1//EN" "http://www.w3.org/Graphics/SVG/1.1/DTD/svg11.dtd">
<svg version="1.1" id="Calque_1" xmlns="http://www.w3.org/2000/svg" xmlns:xlink="http://www.w3.org/1999/xlink" x="0px" y="0px"
	 viewBox="332.6 46.5 860.6 560.2" enable-background="new 332.6 46.5 860.6 560.2" xml:space="preserve">
<title>Cloud, Sun</title>
<g>
	<path fill="#FFFFFF" d="M1030.6,260.3c-63.5-118.9-211.3-163.5-330-100c-7.9,4.4-15.8,9-23.3,14.3c-26.1-18.5-57.1-28.1-89.2-28.1
		c-86.1,0-155.8,69.9-156,156c0,39.3,14.9,77.1,41.7,105.9c-14.5,20.9-22.4,45.7-22.4,71.2c0.7,70.7,58.7,127.6,129.4,127.2H1022
		c95.8-1.1,172.5-79.5,171.1-175.3c-1.1-90.7-72.1-165.4-162.6-170.9l0,0V260.3z M587.9,180.1c21.5,0.2,42.4,5.9,60.9,16.9
		c-43.5,40.4-70.3,95.6-74.9,154.7c-28.6,1.5-55.8,12.3-77.6,30.8c-19.8-22.2-30.5-51-30.5-80.6
		C466.2,234.6,520.7,180.3,587.9,180.1z M1021.8,572.5H580.7c-51.6,0-93.4-41.7-93.4-93.4s41.7-93.4,93.4-93.4h10.8l21.1,1.1v-18
		c1.1-113.6,93.8-204.8,207.4-203.7c79.3,0.7,151.1,47,184.5,118.9l4.8,10.1h12.7c76.9,0,139.3,62.4,139.3,139.3
		S1098.7,572.7,1021.8,572.5L1021.8,572.5L1021.8,572.5z"/>
	<path fill="#FFFFFF" d="M389.3,284h-39.8c-9.4,0-16.9,7.7-16.9,16.9s7.7,16.9,16.9,16.9h39.8c9.4,0,16.9-7.7,16.9-16.9
		S398.7,284,389.3,284z"/>
	<path fill="#FFFFFF" d="M595.8,120.6c9.4,0,16.9-7.7,16.9-16.9V63.4c0-9.4-7.7-16.9-16.9-16.9c-9.4,0-16.9,7.7-16.9,16.9v40.2
		C578.7,112.9,586.4,120.6,595.8,120.6z"/>
	<path fill="#FFFFFF" d="M447.5,178.8c9.4,0.2,17.1-7.2,17.4-16.5c0.2-4.6-1.8-9.2-5.1-12.5l-28.6-27.9c-7-6.2-17.8-5.3-23.9,1.8
		c-5.5,6.4-5.5,15.8,0,22l27.9,27.9C438.7,177,443.1,178.8,447.5,178.8z"/>
</g>
</svg>
