<?xml version="1.0" encoding="utf-8"?>
<!-- Generator: Adobe Illustrator 17.1.0, SVG Export Plug-In . SVG Version: 6.00 Build 0)  -->
<!DOCTYPE svg PUBLIC "-//W3C//DTD SVG 1.1//EN" "http://www.w3.org/Graphics/SVG/1.1/DTD/svg11.dtd">
<svg version="1.1" id="Calque_1" xmlns="http://www.w3.org/2000/svg" xmlns:xlink="http://www.w3.org/1999/xlink" x="0px" y="0px"
	 viewBox="351.5 115.9 875.7 559.8" enable-background="new 351.5 115.9 875.7 559.8" xml:space="preserve">
<title>Cloud</title>
<g>
	<path fill="#FFFFFF" d="M1035.3,267.9c-50-93.7-147.3-152-253.5-152c-148.3-1-272.4,112.4-284.5,259.9
		c-82.8,2.3-148.1,71.2-145.8,154c2.3,82.8,71.2,148.1,154,145.8h519.9c112.9-1.3,203.2-93.7,201.7-206.6
		c-1.3-106.9-84.9-195-191.6-201.4h-0.3V267.9z M1025.2,635.8H505.1c-60.8,0-110-49.2-110-110s49.2-110,110-110c3.1,0,4.7,0,7.5,0
		l19.9,1.3v-21.2c2.6-134.4,112.9-241.6,247.2-240c95.5-0.3,182.8,54.1,224.5,140.1l5.4,11.7h15.3c90.6,0,164.1,73.5,164.1,164.1
		S1116.1,635.8,1025.2,635.8L1025.2,635.8z"/>
</g>
</svg>
