<?xml version="1.0" encoding="utf-8"?>
<!-- Generator: Adobe Illustrator 17.1.0, SVG Export Plug-In . SVG Version: 6.00 Build 0)  -->
<!DOCTYPE svg PUBLIC "-//W3C//DTD SVG 1.1//EN" "http://www.w3.org/Graphics/SVG/1.1/DTD/svg11.dtd">
<svg version="1.1" id="Calque_1" xmlns="http://www.w3.org/2000/svg" xmlns:xlink="http://www.w3.org/1999/xlink" x="0px" y="0px"
	 viewBox="465.8 77.2 647.3 560.1" enable-background="new 465.8 77.2 647.3 560.1" xml:space="preserve">
<title>Cloud, Rain</title>
<g>
	<path fill="#FFFFFF" d="M969.2,189.3c-36.6-69-108.5-112.1-186.6-112.1c-109-0.8-200.3,82.7-209.5,191.4
		c-61,1.7-109,52.4-107.3,113.4c1.7,61,52.4,109,113.4,107.3H962c82.9,0.6,150.6-66.3,151.2-149.2c0.6-80.8-62.9-147.3-143.5-151
		h-0.4V189.3z M961.8,460.1H578.9c-44.8,0-81-36.2-81-81s36.2-81,81-81c2.3,0,3.4,0,5.5,0l14.7,1v-15.6
		c1.9-98.9,83.3-177.8,182-176.7c70.3-0.2,134.6,39.8,165.3,103.1l4,8.6h11.2c66.7,0,120.7,53.9,120.7,120.7
		s-53.9,120.7-120.7,120.7l0,0L961.8,460.1z"/>
	<path fill="#FFFFFF" d="M696.3,536.6c-7.8-2.1-15.8,2.7-17.9,10.5l-19.1,71.1c-2.5,7.8,1.9,16,9.7,18.5c0.2,0,0.4,0.2,0.6,0.2
		c1.1,0.2,2.3,0.2,3.4,0c6.9,0.2,13-4.2,14.7-10.9l19.1-71.3C708.9,546.7,704.3,538.7,696.3,536.6
		C696.5,536.6,696.3,536.6,696.3,536.6z"/>
	<path fill="#FFFFFF" d="M804.2,536.6c-7.8-2.1-15.8,2.7-17.9,10.5l-19.1,71.3c-2.5,7.8,1.9,16,9.7,18.3c7.8,2.3,16-1.9,18.3-9.7
		c0.2-0.4,0.2-0.6,0.2-1l19.1-71.3C816.8,546.7,812.2,538.7,804.2,536.6C804.4,536.6,804.4,536.6,804.2,536.6z"/>
	<path fill="#FFFFFF" d="M588.6,536.6c-7.8-2.3-16,2.1-18.3,9.7c0,0.2-0.2,0.4-0.2,0.6l-19.1,71.3c-2.5,7.8,1.9,16,9.7,18.3
		c7.8,2.3,16-1.9,18.3-9.7c0.2-0.4,0.2-0.6,0.2-1l20-71.3c2.1-7.8-2.7-16-10.5-17.9H588.6z"/>
	<path fill="#FFFFFF" d="M912.1,536.6c-7.8-2.1-16,2.5-18.1,10.3c0,0,0,0,0,0.2l-19.1,71.3c-2.3,7.8,2.1,16,9.7,18.3
		c0.2,0,0.4,0.2,0.6,0.2c1.3,0.2,2.5,0.2,3.8,0c6.9,0.2,13-4.2,14.7-10.9l19.1-71.3c2.1-7.8-2.7-16-10.5-17.9
		C912.3,536.6,912.1,536.6,912.1,536.6z"/>
	<path fill="#FFFFFF" d="M1019.8,536.6c-7.8-2.1-15.8,2.7-17.9,10.5l-19.6,71.1c-2.5,7.8,1.9,16,9.7,18.3c7.8,2.5,16-1.9,18.3-9.7
		c0.2-0.4,0.2-0.6,0.2-1l19.1-71.3C1031.8,546.9,1027.4,538.8,1019.8,536.6z"/>
</g>
</svg>
