<?xml version="1.0" encoding="utf-8"?>
<!-- Generator: Adobe Illustrator 17.1.0, SVG Export Plug-In . SVG Version: 6.00 Build 0)  -->
<!DOCTYPE svg PUBLIC "-//W3C//DTD SVG 1.1//EN" "http://www.w3.org/Graphics/SVG/1.1/DTD/svg11.dtd">
<svg version="1.1" id="Calque_1" xmlns="http://www.w3.org/2000/svg" xmlns:xlink="http://www.w3.org/1999/xlink" x="0px" y="0px"
	 viewBox="424.5 46.5 676.8 559.8" enable-background="new 424.5 46.5 676.8 559.8" xml:space="preserve">
<title>Cloud, Rain, Sun</title>
<g>
	<path fill="#FFFFFF" d="M973.5,214.6C923.5,121.1,807.2,86,713.9,136c-6.2,3.5-12.4,7.1-18.3,11.2c-20.6-14.5-44.9-22.1-70.2-22.1
		c-67.7,0-122.5,54.9-122.7,122.7c0,30.9,11.7,60.6,32.8,83.3C524.2,347.5,518,367,518,387c0.5,55.6,46.1,100.4,101.8,100h347
		c75.3-0.9,135.6-62.5,134.6-137.9c-0.9-71.4-56.7-130.1-127.9-134.4l0,0V214.6z M625.3,151.5c16.9,0.2,33.3,4.7,47.9,13.3
		c-34.2,31.8-55.3,75.2-58.9,121.6c-22.5,1.2-43.9,9.7-61,24.2c-15.6-17.5-24-40.1-24-63.4C529.6,194.4,572.4,151.7,625.3,151.5z
		 M966.5,460.1h-347c-40.6,0-73.4-32.8-73.4-73.4s32.8-73.4,73.4-73.4h8.5l16.6,0.9V300c0.9-89.3,73.8-161,163.1-160.2
		c62.4,0.5,118.9,37,145.1,93.5l3.6,7.8h10c60.5,0,109.5,49.1,109.5,109.5S1027,460.1,966.5,460.1L966.5,460.1L966.5,460.1z"/>
	<path fill="#FFFFFF" d="M469.1,233.3h-31.3c-7.4,0-13.3,6-13.3,13.3c0,7.3,6,13.3,13.3,13.3h31.3c7.4,0,13.3-6,13.3-13.3
		C482.4,239.3,476.5,233.3,469.1,233.3z"/>
	<path fill="#FFFFFF" d="M631.5,104.7c7.4,0,13.3-6,13.3-13.3V59.8c0-7.4-6-13.3-13.3-13.3c-7.4,0-13.3,6-13.3,13.3v31.6
		C618,98.7,624.1,104.7,631.5,104.7z"/>
	<path fill="#FFFFFF" d="M514.9,150.5c7.4,0.2,13.5-5.7,13.7-13c0.2-3.6-1.4-7.3-4-9.8l-22.5-21.9c-5.5-4.8-14-4.1-18.8,1.4
		c-4.3,5-4.3,12.4,0,17.3l21.9,21.9C508,149.1,511.4,150.5,514.9,150.5z"/>
	<path fill="#FFFFFF" d="M725.9,515.1c-7.1-1.9-14.3,2.4-16.2,9.5L692.3,589c-2.2,7.1,1.7,14.5,8.8,16.6c7.1,2.2,14.5-1.7,16.6-8.8
		c0.2-0.3,0.2-0.5,0.2-0.9l17.3-64.4C737.4,524.4,733.1,517.1,725.9,515.1C726,515.1,726,515.1,725.9,515.1z"/>
	<path fill="#FFFFFF" d="M823.8,515.1c-7.1-1.9-14.3,2.4-16.2,9.5L790.3,589c-2.2,7.1,1.7,14.5,8.8,16.6c7.1,2.1,14.5-1.7,16.6-8.8
		c0.2-0.3,0.2-0.5,0.2-0.9l17.3-64.4C835.2,524.4,830.9,517.1,823.8,515.1L823.8,515.1z"/>
	<path fill="#FFFFFF" d="M628.2,515.1c-7.1-1.9-14.3,2.4-16.2,9.5L594.7,589c-2.2,7.1,1.7,14.5,8.8,16.6c7.1,2.1,14.5-1.7,16.6-8.8
		c0.2-0.3,0.2-0.5,0.2-0.9l17.3-64.4C639.6,524.4,635.5,517.1,628.2,515.1L628.2,515.1z"/>
	<path fill="#FFFFFF" d="M921.4,515.1c-7.1-1.9-14.3,2.4-16.2,9.5L887.9,589c-2.2,7.1,1.7,14.5,8.8,16.6c7.1,2.2,14.5-1.7,16.6-8.8
		c0.2-0.3,0.2-0.5,0.2-0.9l17.3-64.4C932.8,524.4,928.7,517.1,921.4,515.1L921.4,515.1z"/>
	<path fill="#FFFFFF" d="M1019.1,515.1c-7.1-1.9-14.3,2.4-16.2,9.5L985.5,589c-2.2,7.1,1.7,14.5,8.8,16.6c7.1,2.2,14.5-1.7,16.6-8.8
		c0.2-0.3,0.2-0.5,0.2-0.9l17.3-64.4C1030.6,524.4,1026.3,517.1,1019.1,515.1C1019.2,515.1,1019.2,515.1,1019.1,515.1z"/>
</g>
</svg>
