<?xml version="1.0" encoding="utf-8"?>
<!-- Generator: Adobe Illustrator 17.1.0, SVG Export Plug-In . SVG Version: 6.00 Build 0)  -->
<!DOCTYPE svg PUBLIC "-//W3C//DTD SVG 1.1//EN" "http://www.w3.org/Graphics/SVG/1.1/DTD/svg11.dtd">
<svg version="1.1" id="Calque_1" xmlns="http://www.w3.org/2000/svg" xmlns:xlink="http://www.w3.org/1999/xlink" x="0px" y="0px"
	 viewBox="429 53.5 684.9 560.3" enable-background="new 429 53.5 684.9 560.3" xml:space="preserve">
<title>Cloud, Moon, Rain</title>
<g>
	<path fill="#FFFFFF" d="M719.9,520.5c-7.3-1.9-14.7,2.5-16.6,9.7l-17.7,66c-2.3,7.3,1.8,14.9,9,17c7.3,2.3,14.9-1.8,17-9
		c0.2-0.4,0.2-0.5,0.2-0.9l17.7-66C731.6,530,727.4,522.6,719.9,520.5L719.9,520.5z"/>
	<path fill="#FFFFFF" d="M819.9,520.5c-7.3-1.9-14.7,2.5-16.6,9.7l-17.7,66c-2.3,7.3,1.8,14.9,9,17c7.3,2.3,14.9-1.8,17-9
		c0.2-0.4,0.2-0.5,0.2-0.9l17.7-66C831.6,530,827.3,522.6,819.9,520.5C820.1,520.5,820.1,520.5,819.9,520.5z"/>
	<path fill="#FFFFFF" d="M619.8,520.5c-7.3-1.9-14.7,2.5-16.6,9.7l-18.2,66c-2.3,7.3,1.8,14.9,9,17c7.3,2.1,14.9-1.8,17-9
		c0.2-0.4,0.2-0.5,0.2-0.9l17.7-66C630.9,530.2,626.9,522.6,619.8,520.5z"/>
	<path fill="#FFFFFF" d="M920,520.5c-7.3-1.9-14.7,2.5-16.6,9.7l-17.7,66c-2.3,7.3,1.8,14.9,9,17c7.3,2.3,14.9-1.8,17-9
		c0.2-0.4,0.2-0.5,0.2-0.9l17.7-66C931.5,530,927.3,522.6,920,520.5L920,520.5z"/>
	<path fill="#FFFFFF" d="M1020.2,520.5c-7.3-1.9-14.7,2.5-16.6,9.7l-17.7,66c-2.3,7.3,1.8,14.9,9,17c7.3,2.3,14.9-1.8,17-9
		c0.2-0.4,0.2-0.5,0.2-0.9l17.7-66C1031.9,530,1027.6,522.6,1020.2,520.5L1020.2,520.5z"/>
	<path fill="#FFFFFF" d="M982.8,199C948.7,134.9,882.2,95.1,809.6,95.1c-101.4-0.7-186.1,76.8-194.5,177.6
		c-9.4,0.5-18.6,2.3-27.2,5.1c-2.1-10.8-3.2-21.6-3-32.6c0.2-67.8,41.9-128.5,104.9-153c7.1-2.7,10.6-10.6,8-17.7
		c-1.4-3.7-4.2-6.5-8-8c-98.6-38.4-209.3,10.4-247.7,109c-34,87.1,0,185.8,80.3,233.7c15.2,41.2,54.5,68.5,98.4,68.3h355.3
		c77.1-0.9,138.9-64.1,137.8-141.2c-0.9-73.1-58-133.2-130.9-137.7h-0.2V199z M975.9,450.6H620.5c-20.3,0.2-40-7.8-54.7-21.9
		c-10.6-10.3-17.9-23.4-20.9-37.7c-0.9-5.1-1.2-10.3-1.1-15.4c0-22.3,10.1-43.3,27.2-57.5c14-11.3,31.5-17.7,49.5-17.7
		c1.8,0,3.4,0,5.1,0l13.6,0.9v-14.5c1.8-91.8,77.1-165.1,169-164c65.3-0.2,124.9,37,153.4,95.7l3.9,8.1h10.3
		c61.9,0,112.2,50.2,112.2,112.2S1038.1,450.6,975.9,450.6L975.9,450.6L975.9,450.6z M483.9,333.8c-48.8-76.3-26.4-177.8,49.9-226.5
		c26.2-16.8,56.6-25.7,87.8-25.8c8.5,0,17,0.7,25.5,2.1c-55.4,35.2-89.2,96.3-89.4,161.9c0,15.2,1.9,30.3,5.7,44.9
		c-27.8,17.9-45.1,47.9-46.5,80.9c-12.9-10.8-24.1-23.4-33.3-37.5H483.9z"/>
</g>
</svg>
