<?xml version="1.0" encoding="utf-8"?>
<!-- Generator: Adobe Illustrator 17.1.0, SVG Export Plug-In . SVG Version: 6.00 Build 0)  -->
<!DOCTYPE svg PUBLIC "-//W3C//DTD SVG 1.1//EN" "http://www.w3.org/Graphics/SVG/1.1/DTD/svg11.dtd">
<svg version="1.1" id="Calque_1" xmlns="http://www.w3.org/2000/svg" xmlns:xlink="http://www.w3.org/1999/xlink" x="0px" y="0px"
	 viewBox="510.5 77.2 557.7 559.8" enable-background="new 510.5 77.2 557.7 559.8" xml:space="preserve">
<title>Cloud, Storm</title>
<g>
	<path fill="#FFFFFF" d="M946.1,174c-31.8-59.7-93.8-96.8-161.4-96.8c-94.5-0.7-173.5,71.6-181.2,165.6
		c-52.8,1.5-94.3,45.3-92.8,98.1c1.5,52.8,45.3,94.3,98.1,92.8h331.1c71.9-0.8,129.4-59.7,128.5-131.6
		c-0.8-68.1-54.1-124.2-122-128.3h-0.2V174z M939.6,408.5H608.4c-38.8,0-70.1-31.3-70.1-70.1s31.3-70.1,70.1-70.1c2,0,3,0,4.8,0
		l12.7,0.8v-13.5c1.6-85.6,71.9-153.9,157.5-152.9c60.8-0.2,116.4,34.5,143,89.2l3.5,7.4h9.7c57.7,0,104.5,46.8,104.5,104.5
		S997.5,408.5,939.6,408.5L939.6,408.5z"/>
	<path fill="#FFFFFF" d="M817.1,535.8h-32l18.5-46.2c2.6-6.6-0.7-14-7.1-16.5c-6.6-2.6-14,0.7-16.5,7.1l-25.4,63.7
		c-2.6,6.6,0.7,14,7.1,16.5c1.5,0.7,3.1,0.8,4.8,0.8h30.3l-29,57.9c-3,6.4-0.2,14,6.3,16.8c6.1,2.8,13.4,0.3,16.5-5.6l38.3-76.3
		c3.1-6.3,0.5-14-5.8-17C820.9,536.3,819.1,535.8,817.1,535.8z"/>
	<path fill="#FFFFFF" d="M693.1,473.6c-6.8-1.8-13.7,2.3-15.5,9.1l-16.5,61.5c-2.1,6.8,1.6,13.9,8.4,15.8c6.8,2.1,13.9-1.6,15.8-8.4
		c0.2-0.3,0.2-0.5,0.2-0.8l16.8-61.7C704.2,482.4,700,475.4,693.1,473.6C693.3,473.6,693.3,473.6,693.1,473.6z"/>
	<path fill="#FFFFFF" d="M616.8,473.6c-6.8-1.8-13.7,2.3-15.5,9.1l-16.5,61.5c-2.1,6.8,1.6,13.9,8.4,15.8c6.8,2.1,13.9-1.6,15.8-8.4
		c0.2-0.3,0.2-0.5,0.2-0.8l16.8-61.7C627.8,482.4,623.7,475.4,616.8,473.6C616.9,473.6,616.8,473.6,616.8,473.6z"/>
	<path fill="#FFFFFF" d="M913.4,473.6c-6.8-1.8-13.7,2.3-15.5,9.1l-17,61.5c-2.1,6.8,1.6,13.9,8.4,15.8c6.8,2.1,13.9-1.6,15.8-8.4
		c0.2-0.3,0.2-0.5,0.2-0.8l16.5-61.5C923.8,482.7,920,475.6,913.4,473.6z"/>
	<path fill="#FFFFFF" d="M989.8,473.6c-6.8-1.8-13.7,2.3-15.5,9.1l-17,61.5c-2.1,6.8,1.6,13.9,8.4,15.8c6.8,2.1,13.9-1.6,15.8-8.4
		c0.2-0.3,0.2-0.5,0.2-0.8l16.5-61.5C1000.2,482.7,996.4,475.6,989.8,473.6z"/>
</g>
</svg>
