<?xml version="1.0" encoding="utf-8"?>
<!-- Generator: Adobe Illustrator 17.1.0, SVG Export Plug-In . SVG Version: 6.00 Build 0)  -->
<!DOCTYPE svg PUBLIC "-//W3C//DTD SVG 1.1//EN" "http://www.w3.org/Graphics/SVG/1.1/DTD/svg11.dtd">
<svg version="1.1" id="Calque_1" xmlns="http://www.w3.org/2000/svg" xmlns:xlink="http://www.w3.org/1999/xlink" x="0px" y="0px"
	 viewBox="319.3 53.4 904.4 560" enable-background="new 319.3 53.4 904.4 560" xml:space="preserve">
<title>Cloud, Moon</title>
<g>
	<path fill="#FFFFFF" d="M1050.6,245.5c-45.1-84.6-132.9-137.1-228.7-137.1C688,107.4,576.1,209.7,565.1,342.9
		c-12.4,0.7-24.5,3-36,6.8c-2.8-14.3-4.2-28.5-4-43c0.2-89.5,55.4-169.6,138.5-202.1c9.3-3.5,14-14,10.5-23.4
		c-1.9-4.9-5.6-8.6-10.5-10.5C533.6,20,387.3,84.5,336.6,214.6c-44.9,114.9,0,245.3,106.1,308.6c20.1,54.4,72,90.4,129.9,90.2h469.1
		c101.9-1.2,183.4-84.6,182-186.4c-1.2-96.5-76.6-175.9-172.9-181.8h-0.2V245.5z M1041.5,577.7H572.1c-26.9,0.2-52.8-10.3-72.2-29
		c-14-13.6-23.6-30.8-27.6-49.8c-1.2-6.8-1.6-13.6-1.4-20.3c0-29.4,13.3-57.2,36-75.9c18.5-15,41.6-23.4,65.4-23.4
		c2.3,0,4.4,0,6.8,0l18,1.2v-19.2c2.3-121,101.6-217.7,222.9-216.6c86.2-0.2,165.2,48.8,202.8,126.4l5.1,10.7h13.6
		c81.8,0,148.1,66.3,148.1,148.1S1123.5,577.7,1041.5,577.7L1041.5,577.7z M391.7,423.5c-64.5-100.7-34.8-234.8,65.9-299
		c34.6-22.2,74.8-33.9,115.9-34.1c11.2,0,22.4,0.9,33.6,2.8c-73.1,46.5-117.7,127.1-118,213.8c0,20.1,2.6,39.9,7.5,59.3
		c-36.7,23.6-59.6,63.3-61.4,106.8c-17.1-14.3-31.8-30.8-43.9-49.5H391.7z"/>
</g>
</svg>
