<?xml version="1.0" encoding="utf-8"?>
<!-- Generator: Adobe Illustrator 17.1.0, SVG Export Plug-In . SVG Version: 6.00 Build 0)  -->
<!DOCTYPE svg PUBLIC "-//W3C//DTD SVG 1.1//EN" "http://www.w3.org/Graphics/SVG/1.1/DTD/svg11.dtd">
<svg version="1.1" id="Calque_1" xmlns="http://www.w3.org/2000/svg" xmlns:xlink="http://www.w3.org/1999/xlink" x="0px" y="0px"
	 viewBox="490.4 85 598.1 559.8" enable-background="new 490.4 85 598.1 559.8" xml:space="preserve">
<title>Cloud, Snow</title>
<g>
	<path fill="#FFFFFF" d="M957.4,188.8C923.3,124.8,856.8,85,784.3,85C683,84.3,598.3,161.7,590,262.5
		c-56.6,1.6-101.1,48.6-99.6,105.2s48.6,101.1,105.2,99.6h355.1c77.1-0.9,138.8-64,137.7-141.1c-0.9-73-58-133.1-130.8-137.6h-0.2
		V188.8z M950.5,440.1H595.3c-41.6,0-75.1-33.6-75.1-75.1s33.6-75.1,75.1-75.1c2.1,0,3.2,0,5.1,0l13.6,0.9v-14.5
		c1.8-91.8,77.1-165,168.9-163.9c65.2-0.2,125,37,153.5,95.7l3.7,8h10.3c61.9,0,112.1,50.2,112.1,112.1S1012.6,440.1,950.5,440.1
		L950.5,440.1z"/>
	<circle fill="#FFFFFF" cx="628" cy="535.7" r="27.2"/>
	<circle fill="#FFFFFF" cx="791.9" cy="535.7" r="27.2"/>
	<circle fill="#FFFFFF" cx="955.8" cy="535.7" r="27.2"/>
	<circle fill="#FFFFFF" cx="873.8" cy="617.6" r="27.2"/>
	<circle fill="#FFFFFF" cx="710" cy="617.6" r="27.2"/>
</g>
</svg>
