<?xml version="1.0" encoding="utf-8"?>
<!-- Generator: Adobe Illustrator 17.1.0, SVG Export Plug-In . SVG Version: 6.00 Build 0)  -->
<!DOCTYPE svg PUBLIC "-//W3C//DTD SVG 1.1//EN" "http://www.w3.org/Graphics/SVG/1.1/DTD/svg11.dtd">
<svg version="1.1" id="Calque_1" xmlns="http://www.w3.org/2000/svg" xmlns:xlink="http://www.w3.org/1999/xlink" x="0px" y="0px"
	 viewBox="329.4 148.2 960 541.5" enable-background="new 329.4 148.2 960 541.5" xml:space="preserve">
<title>Fog</title>
<g>
	<path fill="#FFFFFF" d="M1043.3,542.2c0-13.7-11.2-24.5-24.5-24.5H403.3c-13.7,0-24.5,11.2-24.5,24.5c0,13.7,11.2,24.5,24.5,24.5
		h615.5C1032.2,566.7,1043.3,555.9,1043.3,542.2z"/>
	<path fill="#FFFFFF" d="M427.9,419.2c0,13.7,11.2,24.5,24.5,24.5h738.5c13.7,0,24.5-11.2,24.5-24.5s-11.2-24.5-24.5-24.5H452.4
		C438.7,394.6,427.9,405.5,427.9,419.2z"/>
	<path fill="#FFFFFF" d="M1117.3,296.1c0-13.7-11.2-24.5-24.5-24.5H353.9c-13.7,0-24.5,11.2-24.5,24.5c0,13.7,11.2,24.5,24.5,24.5
		h738.5C1106.1,320.7,1117.3,309.5,1117.3,296.1z"/>
	<path fill="#FFFFFF" d="M1240.3,640.7H501.5c-13.7,0-24.5,11.2-24.5,24.5c0,13.7,11.2,24.5,24.5,24.5H1240
		c13.7,0,24.5-11.2,24.5-24.5C1264.9,651.8,1253.7,640.7,1240.3,640.7z"/>
	<path fill="#FFFFFF" d="M1264.9,148.2H526.4c-13.7,0-24.5,11.2-24.5,24.5s11.2,24.5,24.5,24.5h738.5c13.7,0,24.5-11.2,24.5-24.5
		S1278.6,148.2,1264.9,148.2z"/>
</g>
</svg>
