<?xml version="1.0" encoding="utf-8"?>
<!-- Generator: Adobe Illustrator 17.1.0, SVG Export Plug-In . SVG Version: 6.00 Build 0)  -->
<!DOCTYPE svg PUBLIC "-//W3C//DTD SVG 1.1//EN" "http://www.w3.org/Graphics/SVG/1.1/DTD/svg11.dtd">
<svg version="1.1" id="Calque_1" xmlns="http://www.w3.org/2000/svg" xmlns:xlink="http://www.w3.org/1999/xlink" x="0px" y="0px"
	 viewBox="382.4 77.5 195.3 293.2" enable-background="new 382.4 77.5 195.3 293.2" xml:space="preserve">
<title>Humidity</title>
<g>
	<path fill="#FFFFFF" d="M480,370.8c-2.4,0-4.8,0-7.2,0c-32-2.1-60.8-20.1-76.6-48c-16.9-28.9-18.4-64.4-3.9-94.6l66-137
		c5.8-12,20.3-16.9,32.2-11.1c4.8,2.4,8.8,6.3,11.1,11.1l66,136.8c14.5,30.2,13.1,65.7-3.9,94.6c-15.7,28-44.6,46.2-76.6,48.3
		C484.8,370.8,482.4,370.8,480,370.8z M480,92.7c-3.3,0-6.3,1.9-7.7,4.9l-66,137c-12.3,25.6-11.1,55.7,3.2,80.2
		c13.2,23.5,37.4,38.8,64.3,40.6c4.1,0.3,8.2,0.3,12.3,0c26.9-1.7,51.1-16.9,64.3-40.4c14.3-24.5,15.6-54.6,3.2-80.2l-66-137.2
		C486.3,94.6,483.3,92.7,480,92.7z"/>
</g>
</svg>
