<?xml version="1.0" encoding="utf-8"?>
<!-- Generator: Adobe Illustrator 17.1.0, SVG Export Plug-In . SVG Version: 6.00 Build 0)  -->
<!DOCTYPE svg PUBLIC "-//W3C//DTD SVG 1.1//EN" "http://www.w3.org/Graphics/SVG/1.1/DTD/svg11.dtd">
<svg version="1.1" id="Calque_1" xmlns="http://www.w3.org/2000/svg" xmlns:xlink="http://www.w3.org/1999/xlink" x="0px" y="0px"
	 viewBox="299.7 147.8 360.2 146.2" enable-background="new 299.7 147.8 360.2 146.2" xml:space="preserve">
<title>Swell</title>
<g>
	<path fill="#FFFFFF" d="M652.2,278.1c-18.5,0-41.2-15.4-41.2-33.5c0-4.3-3.5-7.7-7.7-7.7s-7.7,3.5-7.7,7.7
		c0,18.5-15,33.5-33.5,33.5c-18.5,0-33.5-15-33.5-33.5c0,0,0,0,0,0c0-4.3-3.5-7.7-7.7-7.7c-4.3,0-7.7,3.5-7.7,7.7
		c0,17.1-29.3,33.7-46.3,33.7c-7.5,0.6-14.8-2.6-19.4-8.6c-14.8-21.1-0.9-50.4,15.4-62.2c4.2-2.9,11.7-7.1,15.4-1.7
		c2.4,3.4,7,4.7,10.8,2.9c7.7-3.5,10.9-18.2,8.6-29.3c-2.3-11-12.7-31.6-53.6-31.6S364.3,171,333.7,214c-14,20-25.3,41.8-33.5,64.9
		c-1.5,4,0.6,8.4,4.6,9.9c4,1.5,8.4-0.6,9.9-4.6c0.1-0.2,0.1-0.4,0.2-0.5c0.4-1.2,40.6-120.4,129.1-120.4c19.2,0,32,5,36.8,14.5
		c1.8,3.7,2.5,7.9,2,12c-9.9-3.9-21.2-1.9-29.2,5.1c-21.3,15.4-40.4,54.1-19.3,83.7c7.3,10.2,19.4,16.1,32,15.4
		c20.2-1.5,38.9-10.8,52.4-26c13,23.6,42.8,32.2,66.4,19.2c7.7-4.2,14.1-10.5,18.5-18c11.7,15,29.5,24,48.6,24.3
		c4.3,0,7.7-3.5,7.7-7.7C659.9,281.5,656.4,278.1,652.2,278.1z"/>
</g>
</svg>
