<?xml version="1.0" encoding="utf-8"?>
<!-- Generator: Adobe Illustrator 17.1.0, SVG Export Plug-In . SVG Version: 6.00 Build 0)  -->
<!DOCTYPE svg PUBLIC "-//W3C//DTD SVG 1.1//EN" "http://www.w3.org/Graphics/SVG/1.1/DTD/svg11.dtd">
<svg version="1.1" id="Calque_1" xmlns="http://www.w3.org/2000/svg" xmlns:xlink="http://www.w3.org/1999/xlink" x="0px" y="0px"
	 viewBox="494.6 38.6 560 559.8" enable-background="new 494.6 38.6 560 559.8" xml:space="preserve">
<title>Sun</title>
<path fill="#FFFFFF" d="M774.6,150.4c-92.9,0-168.2,75.4-168.2,168.2s75.4,168.2,168.2,168.2s168.2-75.4,168.2-168.2l0,0
	C942.7,225.7,867.5,150.5,774.6,150.4z M774.6,463.4c-80,0-144.8-64.9-144.8-144.8c0-80,64.9-144.8,144.8-144.8
	c80,0,144.8,64.9,144.8,144.8v0.2C919.4,398.6,854.6,463.4,774.6,463.4L774.6,463.4z"/>
<path fill="#FFFFFF" d="M550.9,307h-44.7c-6.5,0-11.6,5.3-11.6,11.6c0,6.5,5.3,11.6,11.6,11.6h44.7c6.5,0,11.6-5.3,11.6-11.6
	C562.7,312.1,557.4,307,550.9,307z"/>
<path fill="#FFFFFF" d="M1043,307h-44.7c-6.5,0-11.6,5.3-11.6,11.6c0,6.5,5.3,11.6,11.6,11.6h44.7c6.5,0,11.6-5.3,11.6-11.6
	C1054.6,312.1,1049.3,307,1043,307z"/>
<path fill="#FFFFFF" d="M774.6,106.7c6.5,0,11.6-5.3,11.6-11.6V50.2c0-6.5-5.3-11.6-11.6-11.6c-6.3,0-11.6,5.3-11.6,11.6v44.7
	C763,101.4,768.1,106.7,774.6,106.7z"/>
<path fill="#FFFFFF" d="M774.6,530.5c-6.5,0-11.6,5.3-11.6,11.6v44.7c0,6.5,5.3,11.6,11.6,11.6c6.3,0,11.6-5.3,11.6-11.6v-44.7
	C786.2,535.8,781.1,530.5,774.6,530.5z"/>
<path fill="#FFFFFF" d="M956.1,120.3l-31.6,31.6c-4.8,4.2-5.4,11.6-1.2,16.5s11.6,5.4,16.5,1.2c0.5-0.5,0.9-0.8,1.2-1.2l32-31.3
	c4.7-4.7,4.7-12.2,0-16.8C968.2,115.6,960.8,115.6,956.1,120.3L956.1,120.3z"/>
<path fill="#FFFFFF" d="M608.3,468.6l-32,31.6c-4.7,4.7-4.7,12.2,0,16.8c4.7,4.7,12.2,4.7,16.8,0l31.6-31.6
	c4.2-4.8,3.6-12.2-1.2-16.5c-4.4-3.8-10.9-3.8-15.1,0V468.6z"/>
<path fill="#FFFFFF" d="M940.9,468.6c-4.8-4.2-12.2-3.6-16.5,1.2c-3.8,4.4-3.8,10.9,0,15.1l31.6,32c4.7,4.7,12.2,4.7,16.8,0
	c4.7-4.7,4.7-12.2,0-16.8L940.9,468.6z"/>
<path fill="#FFFFFF" d="M608.3,168.6c4.8,4.2,12.2,3.6,16.5-1.2c3.8-4.4,3.8-10.9,0-15.1l-31.6-32c-4.7-4.7-12.2-4.7-16.8,0
	c-4.5,4.7-4.7,12.2,0,16.8L608.3,168.6z"/>
</svg>
