<?xml version="1.0" encoding="utf-8"?>
<!-- Generator: Adobe Illustrator 17.1.0, SVG Export Plug-In . SVG Version: 6.00 Build 0)  -->
<!DOCTYPE svg PUBLIC "-//W3C//DTD SVG 1.1//EN" "http://www.w3.org/Graphics/SVG/1.1/DTD/svg11.dtd">
<svg version="1.1" id="Calque_1" xmlns="http://www.w3.org/2000/svg" xmlns:xlink="http://www.w3.org/1999/xlink" x="0px" y="0px"
	 viewBox="410.5 79.7 139 296.4" enable-background="new 410.5 79.7 139 296.4" xml:space="preserve">
<title>Average Temperature</title>
<g>
	<path fill="#FFFFFF" d="M526.3,256.2V126.1c0-25.6-20.7-46.3-46.3-46.3s-46.3,20.7-46.3,46.3v130.2c-14.7,12.6-23.1,31-23.2,50.4
		c0,38.4,31.1,69.5,69.5,69.5s69.5-31.1,69.5-69.5C549.5,287.2,541,268.8,526.3,256.2z M480,358.9c-29.3,0.4-53.5-22.9-54.1-52.3
		c0-15.9,7.5-31,20.2-40.6l3-2.3V126.1c0-17.1,13.8-30.9,30.9-30.9s30.9,13.8,30.9,30.9v137.6l3,2.3c12.7,9.7,20.1,24.7,20.2,40.7
		C533.5,336,509.3,359.4,480,358.9z"/>
	<path fill="#FFFFFF" d="M487.7,277.7v-77.2c0-4.3-3.5-7.7-7.7-7.7s-7.7,3.5-7.7,7.7v77.2c-13.8,2.5-23.5,15-22.4,29
		c0.8,16.6,15,29.4,31.6,28.6c15.4-0.8,27.8-13.1,28.6-28.6C511.1,292.7,501.5,280.2,487.7,277.7z"/>
</g>
</svg>
