<?xml version="1.0" encoding="utf-8"?>
<!-- Generator: Adobe Illustrator 17.1.0, SVG Export Plug-In . SVG Version: 6.00 Build 0)  -->
<!DOCTYPE svg PUBLIC "-//W3C//DTD SVG 1.1//EN" "http://www.w3.org/Graphics/SVG/1.1/DTD/svg11.dtd">
<svg version="1.1" id="Calque_1" xmlns="http://www.w3.org/2000/svg" xmlns:xlink="http://www.w3.org/1999/xlink" x="0px" y="0px"
	 viewBox="310.1 93.2 339.9 261.8" enable-background="new 310.1 93.2 339.9 261.8" xml:space="preserve">
<title>Wind power</title>
<g>
	<path fill="#FFFFFF" d="M597.2,231.7H317.8c-4.3,0-7.7-3.5-7.7-7.7s3.5-7.7,7.7-7.7h279.4c4.3,0,7.7,3.5,7.7,7.7
		S601.4,231.7,597.2,231.7z"/>
	<path fill="#FFFFFF" d="M477,198.7h-142c-4.3,0-7.7-3.5-7.7-7.7c0-4.3,3.5-7.7,7.7-7.7h142c4.3,0,7.7,3.5,7.7,7.7
		C484.7,195.2,481.3,198.7,477,198.7z"/>
	<path fill="#FFFFFF" d="M501,264.8H334.9c-4.3,0-7.7-3.5-7.7-7.7c0-4.3,3.5-7.7,7.7-7.7H501c4.3,0,7.7,3.5,7.7,7.7
		C508.7,261.3,505.3,264.8,501,264.8L501,264.8z"/>
	<path fill="#FFFFFF" d="M597.2,231.7c-4.3,0-7.7-3.5-7.7-7.7s3.5-7.7,7.7-7.7c20.6,0,37.3-16.7,37.3-37.3s-16.7-37.3-37.3-37.3
		c-20.6,0-37.3,16.7-37.3,37.3c0,4.3-3.5,7.7-7.7,7.7s-7.7-3.5-7.7-7.7c0-29.1,23.6-52.8,52.8-52.8c29.1,0,52.8,23.6,52.8,52.8
		S626.3,231.7,597.2,231.7z"/>
	<path fill="#FFFFFF" d="M477,198.7c-4.3,0-7.7-3.5-7.7-7.7c0-4.3,3.5-7.7,7.7-7.7c20.6,0,37.3-16.7,37.3-37.3
		c0-20.6-16.7-37.3-37.3-37.3c-20.6,0-37.3,16.7-37.3,37.3l0,0c0,4.3-3.5,7.7-7.7,7.7s-7.7-3.5-7.7-7.7c0-29.1,23.6-52.8,52.8-52.8
		c29.1,0,52.8,23.6,52.8,52.8S506.1,198.7,477,198.7L477,198.7z"/>
	<path fill="#FFFFFF" d="M501,354.8c-29.1,0-52.7-23.6-52.8-52.8c0-4.3,3.5-7.7,7.7-7.7c4.3,0,7.7,3.5,7.7,7.7
		c0,20.6,16.7,37.3,37.3,37.3c20.6,0,37.3-16.7,37.3-37.3s-16.7-37.3-37.3-37.3c-4.3,0-7.7-3.5-7.7-7.7c0-4.3,3.5-7.7,7.7-7.7
		c29.2,0,52.8,23.6,52.8,52.8S530.2,354.9,501,354.8L501,354.8L501,354.8z"/>
</g>
</svg>
